<?xml version="1.0" encoding="UTF-8" standalone="no"?>
<!DOCTYPE svg PUBLIC "-//W3C//DTD SVG 1.1//EN"
 "http://www.w3.org/Graphics/SVG/1.1/DTD/svg11.dtd">
<!-- Generated by graphviz version 2.40.1 (20161225.0304)
 -->
<!-- Title: dependencies Pages: 1 -->
<svg width="772pt" height="284pt"
 viewBox="0.00 0.00 772.00 284.00" xmlns="http://www.w3.org/2000/svg" xmlns:xlink="http://www.w3.org/1999/xlink">
<g id="graph0" class="graph" transform="scale(1 1) rotate(0) translate(4 280)">
<title>dependencies</title>
<polygon fill="#ffffff" stroke="transparent" points="-4,4 -4,-280 768,-280 768,4 -4,4"/>
<text text-anchor="start" x="361.0091" y="-42.4" font-family="sans-serif" font-weight="bold" font-size="14.00" fill="#000000">Legend</text>
<polygon fill="#ffffb3" stroke="transparent" points="148,-10 148,-30 168,-30 168,-10 148,-10"/>
<text text-anchor="start" x="171.629" y="-15.4" font-family="sans-serif" font-size="14.00" fill="#000000"> &#160;Declarations</text>
<polygon fill="#8dd3c7" stroke="transparent" points="261,-10 261,-30 281,-30 281,-10 261,-10"/>
<text text-anchor="start" x="284.7251" y="-15.4" font-family="sans-serif" font-size="14.00" fill="#000000"> &#160;Module</text>
<polygon fill="#80b1d3" stroke="transparent" points="347,-10 347,-30 367,-30 367,-10 347,-10"/>
<text text-anchor="start" x="370.7812" y="-15.4" font-family="sans-serif" font-size="14.00" fill="#000000"> &#160;Bootstrap</text>
<polygon fill="#fdb462" stroke="transparent" points="444,-10 444,-30 464,-30 464,-10 444,-10"/>
<text text-anchor="start" x="467.6732" y="-15.4" font-family="sans-serif" font-size="14.00" fill="#000000"> &#160;Providers</text>
<polygon fill="#fb8072" stroke="transparent" points="540,-10 540,-30 560,-30 560,-10 540,-10"/>
<text text-anchor="start" x="563.7258" y="-15.4" font-family="sans-serif" font-size="14.00" fill="#000000"> &#160;Exports</text>
<g id="clust1" class="cluster">
<title>cluster_MainHubModule</title>
<polygon fill="none" stroke="#000000" stroke-dasharray="1,5" points="8,-70 8,-268 756,-268 756,-70 8,-70"/>
</g>
<g id="clust2" class="cluster">
<title>cluster_MainHubModule_declarations</title>
<polygon fill="none" stroke="#000000" points="25,-78 25,-130 742,-130 742,-78 25,-78"/>
</g>
<g id="clust8" class="cluster">
<title>cluster_MainHubModule_exports</title>
<polygon fill="none" stroke="#000000" points="16,-208 16,-260 748,-260 748,-208 16,-208"/>
</g>
<!-- MainHubAlertComponent -->
<g id="node1" class="node">
<title>MainHubAlertComponent</title>
<polygon fill="#ffffb3" stroke="#000000" points="733.752,-122 570.248,-122 570.248,-86 733.752,-86 733.752,-122"/>
<text text-anchor="middle" x="652" y="-99.8" font-family="Times,serif" font-size="14.00" fill="#000000">MainHubAlertComponent</text>
</g>
<!-- MainHubModule -->
<g id="node5" class="node">
<title>MainHubModule</title>
<polygon fill="#8dd3c7" stroke="#000000" points="347.7064,-187 344.7064,-191 323.7064,-191 320.7064,-187 234.2936,-187 234.2936,-151 347.7064,-151 347.7064,-187"/>
<text text-anchor="middle" x="291" y="-164.8" font-family="Times,serif" font-size="14.00" fill="#000000">MainHubModule</text>
</g>
<!-- MainHubAlertComponent&#45;&gt;MainHubModule -->
<g id="edge1" class="edge">
<title>MainHubAlertComponent&#45;&gt;MainHubModule</title>
<path fill="none" stroke="#000000" d="M680.042,-122.2667C680.042,-140.5552 680.042,-166 680.042,-166 680.042,-166 357.9867,-166 357.9867,-166"/>
<polygon fill="#000000" stroke="#000000" points="357.9867,-162.5001 347.9867,-166 357.9867,-169.5001 357.9867,-162.5001"/>
</g>
<!-- MainHubButtonsComponent -->
<g id="node2" class="node">
<title>MainHubButtonsComponent</title>
<polygon fill="#ffffb3" stroke="#000000" points="552.0518,-122 373.9482,-122 373.9482,-86 552.0518,-86 552.0518,-122"/>
<text text-anchor="middle" x="463" y="-99.8" font-family="Times,serif" font-size="14.00" fill="#000000">MainHubButtonsComponent</text>
</g>
<!-- MainHubButtonsComponent&#45;&gt;MainHubModule -->
<g id="edge2" class="edge">
<title>MainHubButtonsComponent&#45;&gt;MainHubModule</title>
<path fill="none" stroke="#000000" d="M492.7585,-122.0091C492.7585,-138.0494 492.7585,-159 492.7585,-159 492.7585,-159 357.7379,-159 357.7379,-159"/>
<polygon fill="#000000" stroke="#000000" points="357.738,-155.5001 347.7379,-159 357.7379,-162.5001 357.738,-155.5001"/>
</g>
<!-- MainHubComponent -->
<g id="node3" class="node">
<title>MainHubComponent</title>
<polygon fill="#ffffb3" stroke="#000000" points="355.4888,-122 220.5112,-122 220.5112,-86 355.4888,-86 355.4888,-122"/>
<text text-anchor="middle" x="288" y="-99.8" font-family="Times,serif" font-size="14.00" fill="#000000">MainHubComponent</text>
</g>
<!-- MainHubComponent&#45;&gt;MainHubModule -->
<g id="edge3" class="edge">
<title>MainHubComponent&#45;&gt;MainHubModule</title>
<path fill="none" stroke="#000000" d="M291,-122.1061C291,-122.1061 291,-140.991 291,-140.991"/>
<polygon fill="#000000" stroke="#000000" points="287.5001,-140.9909 291,-150.991 294.5001,-140.991 287.5001,-140.9909"/>
</g>
<!-- MainHubGraphComponent -->
<g id="node4" class="node">
<title>MainHubGraphComponent</title>
<polygon fill="#ffffb3" stroke="#000000" points="202.9706,-122 33.0294,-122 33.0294,-86 202.9706,-86 202.9706,-122"/>
<text text-anchor="middle" x="118" y="-99.8" font-family="Times,serif" font-size="14.00" fill="#000000">MainHubGraphComponent</text>
</g>
<!-- MainHubGraphComponent&#45;&gt;MainHubModule -->
<g id="edge4" class="edge">
<title>MainHubGraphComponent&#45;&gt;MainHubModule</title>
<path fill="none" stroke="#000000" d="M142.8284,-122.0225C142.8284,-139.3734 142.8284,-163 142.8284,-163 142.8284,-163 224.1368,-163 224.1368,-163"/>
<polygon fill="#000000" stroke="#000000" points="224.1368,-166.5001 234.1368,-163 224.1367,-159.5001 224.1368,-166.5001"/>
</g>
<!-- MainHubAlertComponent  -->
<g id="node6" class="node">
<title>MainHubAlertComponent </title>
<polygon fill="#fb8072" stroke="#000000" points="739.752,-252 572.248,-252 572.248,-216 739.752,-216 739.752,-252"/>
<text text-anchor="middle" x="656" y="-229.8" font-family="Times,serif" font-size="14.00" fill="#000000">MainHubAlertComponent </text>
</g>
<!-- MainHubModule&#45;&gt;MainHubAlertComponent  -->
<g id="edge5" class="edge">
<title>MainHubModule&#45;&gt;MainHubAlertComponent </title>
<path fill="none" stroke="#000000" stroke-dasharray="5,2" d="M347.8635,-173C443.4998,-173 626.208,-173 626.208,-173 626.208,-173 626.208,-205.698 626.208,-205.698"/>
<polygon fill="#000000" stroke="#000000" points="622.7081,-205.698 626.208,-215.698 629.7081,-205.698 622.7081,-205.698"/>
</g>
<!-- MainHubButtonsComponent  -->
<g id="node7" class="node">
<title>MainHubButtonsComponent </title>
<polygon fill="#fb8072" stroke="#000000" points="554.0512,-252 371.9488,-252 371.9488,-216 554.0512,-216 554.0512,-252"/>
<text text-anchor="middle" x="463" y="-229.8" font-family="Times,serif" font-size="14.00" fill="#000000">MainHubButtonsComponent </text>
</g>
<!-- MainHubModule&#45;&gt;MainHubButtonsComponent  -->
<g id="edge6" class="edge">
<title>MainHubModule&#45;&gt;MainHubButtonsComponent </title>
<path fill="none" stroke="#000000" stroke-dasharray="5,2" d="M347.6263,-180C387.2929,-180 433.2415,-180 433.2415,-180 433.2415,-180 433.2415,-205.7181 433.2415,-205.7181"/>
<polygon fill="#000000" stroke="#000000" points="429.7416,-205.718 433.2415,-215.7181 436.7416,-205.7181 429.7416,-205.718"/>
</g>
<!-- MainHubComponent  -->
<g id="node8" class="node">
<title>MainHubComponent </title>
<polygon fill="#fb8072" stroke="#000000" points="354.4897,-252 215.5103,-252 215.5103,-216 354.4897,-216 354.4897,-252"/>
<text text-anchor="middle" x="285" y="-229.8" font-family="Times,serif" font-size="14.00" fill="#000000">MainHubComponent </text>
</g>
<!-- MainHubModule&#45;&gt;MainHubComponent  -->
<g id="edge7" class="edge">
<title>MainHubModule&#45;&gt;MainHubComponent </title>
<path fill="none" stroke="#000000" stroke-dasharray="5,2" d="M291,-187.1061C291,-187.1061 291,-205.991 291,-205.991"/>
<polygon fill="#000000" stroke="#000000" points="287.5001,-205.9909 291,-215.991 294.5001,-205.991 287.5001,-205.9909"/>
</g>
<!-- MainHubGraphComponent  -->
<g id="node9" class="node">
<title>MainHubGraphComponent </title>
<polygon fill="#fb8072" stroke="#000000" points="197.9712,-252 24.0288,-252 24.0288,-216 197.9712,-216 197.9712,-252"/>
<text text-anchor="middle" x="111" y="-229.8" font-family="Times,serif" font-size="14.00" fill="#000000">MainHubGraphComponent </text>
</g>
<!-- MainHubModule&#45;&gt;MainHubGraphComponent  -->
<g id="edge8" class="edge">
<title>MainHubModule&#45;&gt;MainHubGraphComponent </title>
<path fill="none" stroke="#000000" stroke-dasharray="5,2" d="M234.1613,-175C174.0835,-175 87.9216,-175 87.9216,-175 87.9216,-175 87.9216,-205.9775 87.9216,-205.9775"/>
<polygon fill="#000000" stroke="#000000" points="84.4215,-205.9775 87.9216,-215.9775 91.4215,-205.9774 84.4215,-205.9775"/>
</g>
</g>
</svg>
