<?xml version="1.0" encoding="UTF-8" standalone="no"?>
<!DOCTYPE svg PUBLIC "-//W3C//DTD SVG 1.1//EN"
 "http://www.w3.org/Graphics/SVG/1.1/DTD/svg11.dtd">
<!-- Generated by graphviz version 2.40.1 (20161225.0304)
 -->
<!-- Title: dependencies Pages: 1 -->
<svg width="1328pt" height="284pt"
 viewBox="0.00 0.00 1328.00 284.00" xmlns="http://www.w3.org/2000/svg" xmlns:xlink="http://www.w3.org/1999/xlink">
<g id="graph0" class="graph" transform="scale(1 1) rotate(0) translate(4 280)">
<title>dependencies</title>
<polygon fill="#ffffff" stroke="transparent" points="-4,4 -4,-280 1324,-280 1324,4 -4,4"/>
<text text-anchor="start" x="639.0091" y="-42.4" font-family="sans-serif" font-weight="bold" font-size="14.00" fill="#000000">Legend</text>
<polygon fill="#ffffb3" stroke="transparent" points="426,-10 426,-30 446,-30 446,-10 426,-10"/>
<text text-anchor="start" x="449.629" y="-15.4" font-family="sans-serif" font-size="14.00" fill="#000000"> &#160;Declarations</text>
<polygon fill="#8dd3c7" stroke="transparent" points="539,-10 539,-30 559,-30 559,-10 539,-10"/>
<text text-anchor="start" x="562.7251" y="-15.4" font-family="sans-serif" font-size="14.00" fill="#000000"> &#160;Module</text>
<polygon fill="#80b1d3" stroke="transparent" points="625,-10 625,-30 645,-30 645,-10 625,-10"/>
<text text-anchor="start" x="648.7812" y="-15.4" font-family="sans-serif" font-size="14.00" fill="#000000"> &#160;Bootstrap</text>
<polygon fill="#fdb462" stroke="transparent" points="722,-10 722,-30 742,-30 742,-10 722,-10"/>
<text text-anchor="start" x="745.6732" y="-15.4" font-family="sans-serif" font-size="14.00" fill="#000000"> &#160;Providers</text>
<polygon fill="#fb8072" stroke="transparent" points="818,-10 818,-30 838,-30 838,-10 818,-10"/>
<text text-anchor="start" x="841.7258" y="-15.4" font-family="sans-serif" font-size="14.00" fill="#000000"> &#160;Exports</text>
<g id="clust1" class="cluster">
<title>cluster_AppModule</title>
<polygon fill="none" stroke="#000000" stroke-dasharray="1,5" points="8,-70 8,-268 1312,-268 1312,-70 8,-70"/>
</g>
<g id="clust2" class="cluster">
<title>cluster_AppModule_declarations</title>
<polygon fill="none" stroke="#000000" points="902,-78 902,-130 1304,-130 1304,-78 902,-78"/>
</g>
<g id="clust6" class="cluster">
<title>cluster_AppModule_imports</title>
<polygon fill="none" stroke="#000000" points="16,-78 16,-130 894,-130 894,-78 16,-78"/>
</g>
<g id="clust8" class="cluster">
<title>cluster_AppModule_bootstrap</title>
<polygon fill="none" stroke="#000000" points="609,-208 609,-260 733,-260 733,-208 609,-208"/>
</g>
<!-- AppComponent -->
<g id="node1" class="node">
<title>AppComponent</title>
<polygon fill="#ffffb3" stroke="#000000" points="1295.9399,-122 1190.0601,-122 1190.0601,-86 1295.9399,-86 1295.9399,-122"/>
<text text-anchor="middle" x="1243" y="-99.8" font-family="Times,serif" font-size="14.00" fill="#000000">AppComponent</text>
</g>
<!-- AppModule -->
<g id="node4" class="node">
<title>AppModule</title>
<polygon fill="#8dd3c7" stroke="#000000" points="712.6571,-187 709.6571,-191 688.6571,-191 685.6571,-187 629.3429,-187 629.3429,-151 712.6571,-151 712.6571,-187"/>
<text text-anchor="middle" x="671" y="-164.8" font-family="Times,serif" font-size="14.00" fill="#000000">AppModule</text>
</g>
<!-- AppComponent&#45;&gt;AppModule -->
<g id="edge1" class="edge">
<title>AppComponent&#45;&gt;AppModule</title>
<path fill="none" stroke="#000000" d="M1243,-122.0109C1243,-144.4852 1243,-180 1243,-180 1243,-180 723.0605,-180 723.0605,-180"/>
<polygon fill="#000000" stroke="#000000" points="723.0606,-176.5001 713.0605,-180 723.0605,-183.5001 723.0606,-176.5001"/>
</g>
<!-- HeaderComponent -->
<g id="node2" class="node">
<title>HeaderComponent</title>
<polygon fill="#ffffb3" stroke="#000000" points="1171.7437,-122 1050.2563,-122 1050.2563,-86 1171.7437,-86 1171.7437,-122"/>
<text text-anchor="middle" x="1111" y="-99.8" font-family="Times,serif" font-size="14.00" fill="#000000">HeaderComponent</text>
</g>
<!-- HeaderComponent&#45;&gt;AppModule -->
<g id="edge2" class="edge">
<title>HeaderComponent&#45;&gt;AppModule</title>
<path fill="none" stroke="#000000" d="M1111,-122.1289C1111,-142.5724 1111,-173 1111,-173 1111,-173 722.7908,-173 722.7908,-173"/>
<polygon fill="#000000" stroke="#000000" points="722.7908,-169.5001 712.7908,-173 722.7908,-176.5001 722.7908,-169.5001"/>
</g>
<!-- NavbarComponent -->
<g id="node3" class="node">
<title>NavbarComponent</title>
<polygon fill="#ffffb3" stroke="#000000" points="1032.0297,-122 909.9703,-122 909.9703,-86 1032.0297,-86 1032.0297,-122"/>
<text text-anchor="middle" x="971" y="-99.8" font-family="Times,serif" font-size="14.00" fill="#000000">NavbarComponent</text>
</g>
<!-- NavbarComponent&#45;&gt;AppModule -->
<g id="edge3" class="edge">
<title>NavbarComponent&#45;&gt;AppModule</title>
<path fill="none" stroke="#000000" d="M971,-122.2667C971,-140.5552 971,-166 971,-166 971,-166 722.7137,-166 722.7137,-166"/>
<polygon fill="#000000" stroke="#000000" points="722.7137,-162.5001 712.7137,-166 722.7137,-169.5001 722.7137,-162.5001"/>
</g>
<!-- AppComponent  -->
<g id="node11" class="node">
<title>AppComponent </title>
<polygon fill="#80b1d3" stroke="#000000" points="725.439,-252 616.561,-252 616.561,-216 725.439,-216 725.439,-252"/>
<text text-anchor="middle" x="671" y="-229.8" font-family="Times,serif" font-size="14.00" fill="#000000">AppComponent </text>
</g>
<!-- AppModule&#45;&gt;AppComponent  -->
<g id="edge10" class="edge">
<title>AppModule&#45;&gt;AppComponent </title>
<path fill="none" stroke="#000000" stroke-dasharray="1,5" d="M671,-187.1061C671,-187.1061 671,-205.991 671,-205.991"/>
<polygon fill="#000000" stroke="#000000" points="667.5001,-205.9909 671,-215.991 674.5001,-205.991 667.5001,-205.9909"/>
</g>
<!-- AddNewPlantModule -->
<g id="node5" class="node">
<title>AddNewPlantModule</title>
<polygon fill="#8dd3c7" stroke="#000000" points="886.3627,-122 883.3627,-126 862.3627,-126 859.3627,-122 747.6373,-122 747.6373,-86 886.3627,-86 886.3627,-122"/>
<text text-anchor="middle" x="817" y="-99.8" font-family="Times,serif" font-size="14.00" fill="#000000">AddNewPlantModule</text>
</g>
<!-- AddNewPlantModule&#45;&gt;AppModule -->
<g id="edge4" class="edge">
<title>AddNewPlantModule&#45;&gt;AppModule</title>
<path fill="none" stroke="#000000" d="M817,-122.0091C817,-138.0494 817,-159 817,-159 817,-159 722.8377,-159 722.8377,-159"/>
<polygon fill="#000000" stroke="#000000" points="722.8378,-155.5001 712.8377,-159 722.8377,-162.5001 722.8378,-155.5001"/>
</g>
<!-- AlertsHubModule -->
<g id="node6" class="node">
<title>AlertsHubModule</title>
<polygon fill="#8dd3c7" stroke="#000000" points="729.8641,-122 726.8641,-126 705.8641,-126 702.8641,-122 612.1359,-122 612.1359,-86 729.8641,-86 729.8641,-122"/>
<text text-anchor="middle" x="671" y="-99.8" font-family="Times,serif" font-size="14.00" fill="#000000">AlertsHubModule</text>
</g>
<!-- AlertsHubModule&#45;&gt;AppModule -->
<g id="edge5" class="edge">
<title>AlertsHubModule&#45;&gt;AppModule</title>
<path fill="none" stroke="#000000" d="M671,-122.1061C671,-122.1061 671,-140.991 671,-140.991"/>
<polygon fill="#000000" stroke="#000000" points="667.5001,-140.9909 671,-150.991 674.5001,-140.991 667.5001,-140.9909"/>
</g>
<!-- AppRoutingModule -->
<g id="node7" class="node">
<title>AppRoutingModule</title>
<polygon fill="#8dd3c7" stroke="#000000" points="594.2744,-122 591.2744,-126 570.2744,-126 567.2744,-122 465.7256,-122 465.7256,-86 594.2744,-86 594.2744,-122"/>
<text text-anchor="middle" x="530" y="-99.8" font-family="Times,serif" font-size="14.00" fill="#000000">AppRoutingModule</text>
</g>
<!-- AppRoutingModule&#45;&gt;AppModule -->
<g id="edge6" class="edge">
<title>AppRoutingModule&#45;&gt;AppModule</title>
<path fill="none" stroke="#000000" d="M530,-122.0091C530,-138.0494 530,-159 530,-159 530,-159 619.0771,-159 619.0771,-159"/>
<polygon fill="#000000" stroke="#000000" points="619.0771,-162.5001 629.0771,-159 619.0771,-155.5001 619.0771,-162.5001"/>
</g>
<!-- GraphsHubModule -->
<g id="node8" class="node">
<title>GraphsHubModule</title>
<polygon fill="#8dd3c7" stroke="#000000" points="448.0828,-122 445.0828,-126 424.0828,-126 421.0828,-122 323.9172,-122 323.9172,-86 448.0828,-86 448.0828,-122"/>
<text text-anchor="middle" x="386" y="-99.8" font-family="Times,serif" font-size="14.00" fill="#000000">GraphsHubModule</text>
</g>
<!-- GraphsHubModule&#45;&gt;AppModule -->
<g id="edge7" class="edge">
<title>GraphsHubModule&#45;&gt;AppModule</title>
<path fill="none" stroke="#000000" d="M386,-122.2667C386,-140.5552 386,-166 386,-166 386,-166 619.2533,-166 619.2533,-166"/>
<polygon fill="#000000" stroke="#000000" points="619.2534,-169.5001 629.2533,-166 619.2533,-162.5001 619.2534,-169.5001"/>
</g>
<!-- InformationHubModule -->
<g id="node9" class="node">
<title>InformationHubModule</title>
<polygon fill="#8dd3c7" stroke="#000000" points="306.0253,-122 303.0253,-126 282.0253,-126 279.0253,-122 155.9747,-122 155.9747,-86 306.0253,-86 306.0253,-122"/>
<text text-anchor="middle" x="231" y="-99.8" font-family="Times,serif" font-size="14.00" fill="#000000">InformationHubModule</text>
</g>
<!-- InformationHubModule&#45;&gt;AppModule -->
<g id="edge8" class="edge">
<title>InformationHubModule&#45;&gt;AppModule</title>
<path fill="none" stroke="#000000" d="M231,-122.1289C231,-142.5724 231,-173 231,-173 231,-173 619.2092,-173 619.2092,-173"/>
<polygon fill="#000000" stroke="#000000" points="619.2092,-176.5001 629.2092,-173 619.2092,-169.5001 619.2092,-176.5001"/>
</g>
<!-- MainHubModule -->
<g id="node10" class="node">
<title>MainHubModule</title>
<polygon fill="#8dd3c7" stroke="#000000" points="137.7064,-122 134.7064,-126 113.7064,-126 110.7064,-122 24.2936,-122 24.2936,-86 137.7064,-86 137.7064,-122"/>
<text text-anchor="middle" x="81" y="-99.8" font-family="Times,serif" font-size="14.00" fill="#000000">MainHubModule</text>
</g>
<!-- MainHubModule&#45;&gt;AppModule -->
<g id="edge9" class="edge">
<title>MainHubModule&#45;&gt;AppModule</title>
<path fill="none" stroke="#000000" d="M81,-122.0109C81,-144.4852 81,-180 81,-180 81,-180 619.0416,-180 619.0416,-180"/>
<polygon fill="#000000" stroke="#000000" points="619.0417,-183.5001 629.0416,-180 619.0416,-176.5001 619.0417,-183.5001"/>
</g>
</g>
</svg>
