<?xml version="1.0" encoding="UTF-8" standalone="no"?>
<!DOCTYPE svg PUBLIC "-//W3C//DTD SVG 1.1//EN"
 "http://www.w3.org/Graphics/SVG/1.1/DTD/svg11.dtd">
<!-- Generated by graphviz version 2.40.1 (20161225.0304)
 -->
<!-- Title: dependencies Pages: 1 -->
<svg width="3675pt" height="358pt"
 viewBox="0.00 0.00 3675.00 358.00" xmlns="http://www.w3.org/2000/svg" xmlns:xlink="http://www.w3.org/1999/xlink">
<g id="graph0" class="graph" transform="scale(1 1) rotate(0) translate(4 354)">
<title>dependencies</title>
<polygon fill="#ffffff" stroke="transparent" points="-4,4 -4,-354 3671,-354 3671,4 -4,4"/>
<text text-anchor="start" x="1812.5091" y="-42.4" font-family="sans-serif" font-weight="bold" font-size="14.00" fill="#000000">Legend</text>
<polygon fill="#ffffb3" stroke="transparent" points="1599.5,-10 1599.5,-30 1619.5,-30 1619.5,-10 1599.5,-10"/>
<text text-anchor="start" x="1623.129" y="-15.4" font-family="sans-serif" font-size="14.00" fill="#000000"> &#160;Declarations</text>
<polygon fill="#8dd3c7" stroke="transparent" points="1712.5,-10 1712.5,-30 1732.5,-30 1732.5,-10 1712.5,-10"/>
<text text-anchor="start" x="1736.2251" y="-15.4" font-family="sans-serif" font-size="14.00" fill="#000000"> &#160;Module</text>
<polygon fill="#80b1d3" stroke="transparent" points="1798.5,-10 1798.5,-30 1818.5,-30 1818.5,-10 1798.5,-10"/>
<text text-anchor="start" x="1822.2812" y="-15.4" font-family="sans-serif" font-size="14.00" fill="#000000"> &#160;Bootstrap</text>
<polygon fill="#fdb462" stroke="transparent" points="1895.5,-10 1895.5,-30 1915.5,-30 1915.5,-10 1895.5,-10"/>
<text text-anchor="start" x="1919.1732" y="-15.4" font-family="sans-serif" font-size="14.00" fill="#000000"> &#160;Providers</text>
<polygon fill="#fb8072" stroke="transparent" points="1991.5,-10 1991.5,-30 2011.5,-30 2011.5,-10 1991.5,-10"/>
<text text-anchor="start" x="2015.2258" y="-15.4" font-family="sans-serif" font-size="14.00" fill="#000000"> &#160;Exports</text>
<g id="clust1" class="cluster">
<title>cluster_AddNewPlantModule</title>
<polygon fill="none" stroke="#000000" stroke-dasharray="1,5" points="8,-70 8,-274 204,-274 204,-70 8,-70"/>
</g>
<g id="clust2" class="cluster">
<title>cluster_AddNewPlantModule_declarations</title>
<polygon fill="none" stroke="#000000" points="19,-78 19,-130 195,-130 195,-78 19,-78"/>
</g>
<g id="clust5" class="cluster">
<title>cluster_AddNewPlantModule_exports</title>
<polygon fill="none" stroke="#000000" points="16,-214 16,-266 196,-266 196,-214 16,-214"/>
</g>
<g id="clust8" class="cluster">
<title>cluster_AlertsHubModule</title>
<polygon fill="none" stroke="#000000" stroke-dasharray="1,5" points="3483,-70 3483,-274 3659,-274 3659,-70 3483,-70"/>
</g>
<g id="clust9" class="cluster">
<title>cluster_AlertsHubModule_declarations</title>
<polygon fill="none" stroke="#000000" points="3492,-78 3492,-130 3648,-130 3648,-78 3492,-78"/>
</g>
<g id="clust12" class="cluster">
<title>cluster_AlertsHubModule_exports</title>
<polygon fill="none" stroke="#000000" points="3491,-214 3491,-266 3651,-266 3651,-214 3491,-214"/>
</g>
<g id="clust15" class="cluster">
<title>cluster_AppModule</title>
<polygon fill="none" stroke="#000000" stroke-dasharray="1,5" points="212,-138 212,-342 1224,-342 1224,-138 212,-138"/>
</g>
<g id="clust16" class="cluster">
<title>cluster_AppModule_declarations</title>
<polygon fill="none" stroke="#000000" points="220,-146 220,-198 622,-198 622,-146 220,-146"/>
</g>
<g id="clust20" class="cluster">
<title>cluster_AppModule_imports</title>
<polygon fill="none" stroke="#000000" points="630,-146 630,-198 1216,-198 1216,-146 630,-146"/>
</g>
<g id="clust22" class="cluster">
<title>cluster_AppModule_bootstrap</title>
<polygon fill="none" stroke="#000000" points="640,-282 640,-334 764,-334 764,-282 640,-282"/>
</g>
<g id="clust30" class="cluster">
<title>cluster_GraphsHubModule</title>
<polygon fill="none" stroke="#000000" stroke-dasharray="1,5" points="1232,-206 1232,-274 1584,-274 1584,-206 1232,-206"/>
</g>
<g id="clust31" class="cluster">
<title>cluster_GraphsHubModule_declarations</title>
<polygon fill="none" stroke="#000000" points="1414,-214 1414,-266 1576,-266 1576,-214 1414,-214"/>
</g>
<g id="clust34" class="cluster">
<title>cluster_GraphsHubModule_exports</title>
<polygon fill="none" stroke="#000000" points="1240,-214 1240,-266 1406,-266 1406,-214 1240,-214"/>
</g>
<g id="clust37" class="cluster">
<title>cluster_InformationHubModule</title>
<polygon fill="none" stroke="#000000" stroke-dasharray="1,5" points="1592,-206 1592,-274 1996,-274 1996,-206 1592,-206"/>
</g>
<g id="clust38" class="cluster">
<title>cluster_InformationHubModule_declarations</title>
<polygon fill="none" stroke="#000000" points="1800,-214 1800,-266 1988,-266 1988,-214 1800,-214"/>
</g>
<g id="clust41" class="cluster">
<title>cluster_InformationHubModule_exports</title>
<polygon fill="none" stroke="#000000" points="1600,-214 1600,-266 1792,-266 1792,-214 1600,-214"/>
</g>
<g id="clust44" class="cluster">
<title>cluster_MainHubModule</title>
<polygon fill="none" stroke="#000000" stroke-dasharray="1,5" points="2004,-206 2004,-274 3475,-274 3475,-206 2004,-206"/>
</g>
<g id="clust45" class="cluster">
<title>cluster_MainHubModule_declarations</title>
<polygon fill="none" stroke="#000000" points="2751,-214 2751,-266 3467,-266 3467,-214 2751,-214"/>
</g>
<g id="clust51" class="cluster">
<title>cluster_MainHubModule_exports</title>
<polygon fill="none" stroke="#000000" points="2012,-214 2012,-266 2743,-266 2743,-214 2012,-214"/>
</g>
<!-- AddNewPlantComponent -->
<g id="node1" class="node">
<title>AddNewPlantComponent</title>
<polygon fill="#ffffb3" stroke="#000000" points="187.1456,-122 26.8544,-122 26.8544,-86 187.1456,-86 187.1456,-122"/>
<text text-anchor="middle" x="107" y="-99.8" font-family="Times,serif" font-size="14.00" fill="#000000">AddNewPlantComponent</text>
</g>
<!-- AddNewPlantModule -->
<g id="node2" class="node">
<title>AddNewPlantModule</title>
<polygon fill="#8dd3c7" stroke="#000000" points="176.3627,-190 173.3627,-194 152.3627,-194 149.3627,-190 37.6373,-190 37.6373,-154 176.3627,-154 176.3627,-190"/>
<text text-anchor="middle" x="107" y="-167.8" font-family="Times,serif" font-size="14.00" fill="#000000">AddNewPlantModule</text>
</g>
<!-- AddNewPlantComponent&#45;&gt;AddNewPlantModule -->
<g id="edge1" class="edge">
<title>AddNewPlantComponent&#45;&gt;AddNewPlantModule</title>
<path fill="none" stroke="#000000" d="M107,-122.2228C107,-122.2228 107,-143.7269 107,-143.7269"/>
<polygon fill="#000000" stroke="#000000" points="103.5001,-143.7269 107,-153.7269 110.5001,-143.727 103.5001,-143.7269"/>
</g>
<!-- AddNewPlantComponent  -->
<g id="node3" class="node">
<title>AddNewPlantComponent </title>
<polygon fill="#fb8072" stroke="#000000" points="188.1453,-258 23.8547,-258 23.8547,-222 188.1453,-222 188.1453,-258"/>
<text text-anchor="middle" x="106" y="-235.8" font-family="Times,serif" font-size="14.00" fill="#000000">AddNewPlantComponent </text>
</g>
<!-- AddNewPlantModule&#45;&gt;AddNewPlantComponent  -->
<g id="edge2" class="edge">
<title>AddNewPlantModule&#45;&gt;AddNewPlantComponent </title>
<path fill="none" stroke="#000000" stroke-dasharray="5,2" d="M107,-190.2228C107,-190.2228 107,-211.7269 107,-211.7269"/>
<polygon fill="#000000" stroke="#000000" points="103.5001,-211.7269 107,-221.7269 110.5001,-211.727 103.5001,-211.7269"/>
</g>
<!-- AppModule -->
<g id="node10" class="node">
<title>AppModule</title>
<polygon fill="#8dd3c7" stroke="#000000" points="743.6571,-258 740.6571,-262 719.6571,-262 716.6571,-258 660.3429,-258 660.3429,-222 743.6571,-222 743.6571,-258"/>
<text text-anchor="middle" x="702" y="-235.8" font-family="Times,serif" font-size="14.00" fill="#000000">AppModule</text>
</g>
<!-- AddNewPlantModule&#45;&gt;AppModule -->
<g id="edge8" class="edge">
<title>AddNewPlantModule&#45;&gt;AppModule</title>
<path fill="none" stroke="#000000" d="M176.5305,-172C194.0085,-172 207.9041,-172 207.9041,-172 207.9041,-172 207.9041,-251 207.9041,-251 207.9041,-251 650.2995,-251 650.2995,-251"/>
<polygon fill="#000000" stroke="#000000" points="650.2995,-254.5001 660.2995,-251 650.2995,-247.5001 650.2995,-254.5001"/>
</g>
<!-- AlertsHubComponent -->
<g id="node4" class="node">
<title>AlertsHubComponent</title>
<polygon fill="#ffffb3" stroke="#000000" points="3639.647,-122 3500.353,-122 3500.353,-86 3639.647,-86 3639.647,-122"/>
<text text-anchor="middle" x="3570" y="-99.8" font-family="Times,serif" font-size="14.00" fill="#000000">AlertsHubComponent</text>
</g>
<!-- AlertsHubModule -->
<g id="node5" class="node">
<title>AlertsHubModule</title>
<polygon fill="#8dd3c7" stroke="#000000" points="3628.8641,-190 3625.8641,-194 3604.8641,-194 3601.8641,-190 3511.1359,-190 3511.1359,-154 3628.8641,-154 3628.8641,-190"/>
<text text-anchor="middle" x="3570" y="-167.8" font-family="Times,serif" font-size="14.00" fill="#000000">AlertsHubModule</text>
</g>
<!-- AlertsHubComponent&#45;&gt;AlertsHubModule -->
<g id="edge3" class="edge">
<title>AlertsHubComponent&#45;&gt;AlertsHubModule</title>
<path fill="none" stroke="#000000" d="M3570,-122.2228C3570,-122.2228 3570,-143.7269 3570,-143.7269"/>
<polygon fill="#000000" stroke="#000000" points="3566.5001,-143.7269 3570,-153.7269 3573.5001,-143.727 3566.5001,-143.7269"/>
</g>
<!-- AlertsHubComponent  -->
<g id="node6" class="node">
<title>AlertsHubComponent </title>
<polygon fill="#fb8072" stroke="#000000" points="3642.6467,-258 3499.3533,-258 3499.3533,-222 3642.6467,-222 3642.6467,-258"/>
<text text-anchor="middle" x="3571" y="-235.8" font-family="Times,serif" font-size="14.00" fill="#000000">AlertsHubComponent </text>
</g>
<!-- AlertsHubModule&#45;&gt;AlertsHubComponent  -->
<g id="edge4" class="edge">
<title>AlertsHubModule&#45;&gt;AlertsHubComponent </title>
<path fill="none" stroke="#000000" stroke-dasharray="5,2" d="M3570,-190.2228C3570,-190.2228 3570,-211.7269 3570,-211.7269"/>
<polygon fill="#000000" stroke="#000000" points="3566.5001,-211.7269 3570,-221.7269 3573.5001,-211.727 3566.5001,-211.7269"/>
</g>
<!-- AlertsHubModule&#45;&gt;AppModule -->
<g id="edge9" class="edge">
<title>AlertsHubModule&#45;&gt;AppModule</title>
<path fill="none" stroke="#000000" d="M3510.9352,-158C3147.3086,-158 1227.9602,-158 1227.9602,-158 1227.9602,-158 1227.9602,-252 1227.9602,-252 1227.9602,-252 753.7108,-252 753.7108,-252"/>
<polygon fill="#000000" stroke="#000000" points="753.7109,-248.5001 743.7108,-252 753.7108,-255.5001 753.7109,-248.5001"/>
</g>
<!-- AppComponent -->
<g id="node7" class="node">
<title>AppComponent</title>
<polygon fill="#ffffb3" stroke="#000000" points="613.9399,-190 508.0601,-190 508.0601,-154 613.9399,-154 613.9399,-190"/>
<text text-anchor="middle" x="561" y="-167.8" font-family="Times,serif" font-size="14.00" fill="#000000">AppComponent</text>
</g>
<!-- AppComponent&#45;&gt;AppModule -->
<g id="edge5" class="edge">
<title>AppComponent&#45;&gt;AppModule</title>
<path fill="none" stroke="#000000" d="M561,-190.0336C561,-207.0597 561,-230 561,-230 561,-230 650.0771,-230 650.0771,-230"/>
<polygon fill="#000000" stroke="#000000" points="650.0771,-233.5001 660.0771,-230 650.0771,-226.5001 650.0771,-233.5001"/>
</g>
<!-- HeaderComponent -->
<g id="node8" class="node">
<title>HeaderComponent</title>
<polygon fill="#ffffb3" stroke="#000000" points="489.7437,-190 368.2563,-190 368.2563,-154 489.7437,-154 489.7437,-190"/>
<text text-anchor="middle" x="429" y="-167.8" font-family="Times,serif" font-size="14.00" fill="#000000">HeaderComponent</text>
</g>
<!-- HeaderComponent&#45;&gt;AppModule -->
<g id="edge6" class="edge">
<title>HeaderComponent&#45;&gt;AppModule</title>
<path fill="none" stroke="#000000" d="M429,-190.1061C429,-209.3391 429,-237 429,-237 429,-237 650.24,-237 650.24,-237"/>
<polygon fill="#000000" stroke="#000000" points="650.24,-240.5001 660.24,-237 650.24,-233.5001 650.24,-240.5001"/>
</g>
<!-- NavbarComponent -->
<g id="node9" class="node">
<title>NavbarComponent</title>
<polygon fill="#ffffb3" stroke="#000000" points="350.0297,-190 227.9703,-190 227.9703,-154 350.0297,-154 350.0297,-190"/>
<text text-anchor="middle" x="289" y="-167.8" font-family="Times,serif" font-size="14.00" fill="#000000">NavbarComponent</text>
</g>
<!-- NavbarComponent&#45;&gt;AppModule -->
<g id="edge7" class="edge">
<title>NavbarComponent&#45;&gt;AppModule</title>
<path fill="none" stroke="#000000" d="M289,-190.1686C289,-211.498 289,-244 289,-244 289,-244 650.1265,-244 650.1265,-244"/>
<polygon fill="#000000" stroke="#000000" points="650.1266,-247.5001 660.1265,-244 650.1265,-240.5001 650.1266,-247.5001"/>
</g>
<!-- AppComponent  -->
<g id="node15" class="node">
<title>AppComponent </title>
<polygon fill="#80b1d3" stroke="#000000" points="756.439,-326 647.561,-326 647.561,-290 756.439,-290 756.439,-326"/>
<text text-anchor="middle" x="702" y="-303.8" font-family="Times,serif" font-size="14.00" fill="#000000">AppComponent </text>
</g>
<!-- AppModule&#45;&gt;AppComponent  -->
<g id="edge14" class="edge">
<title>AppModule&#45;&gt;AppComponent </title>
<path fill="none" stroke="#000000" stroke-dasharray="1,5" d="M702,-258.2228C702,-258.2228 702,-279.7269 702,-279.7269"/>
<polygon fill="#000000" stroke="#000000" points="698.5001,-279.7269 702,-289.7269 705.5001,-279.727 698.5001,-279.7269"/>
</g>
<!-- AppRoutingModule -->
<g id="node11" class="node">
<title>AppRoutingModule</title>
<polygon fill="#8dd3c7" stroke="#000000" points="766.2744,-190 763.2744,-194 742.2744,-194 739.2744,-190 637.7256,-190 637.7256,-154 766.2744,-154 766.2744,-190"/>
<text text-anchor="middle" x="702" y="-167.8" font-family="Times,serif" font-size="14.00" fill="#000000">AppRoutingModule</text>
</g>
<!-- AppRoutingModule&#45;&gt;AppModule -->
<g id="edge10" class="edge">
<title>AppRoutingModule&#45;&gt;AppModule</title>
<path fill="none" stroke="#000000" d="M702,-190.2228C702,-190.2228 702,-211.7269 702,-211.7269"/>
<polygon fill="#000000" stroke="#000000" points="698.5001,-211.7269 702,-221.7269 705.5001,-211.727 698.5001,-211.7269"/>
</g>
<!-- GraphsHubModule -->
<g id="node12" class="node">
<title>GraphsHubModule</title>
<polygon fill="#8dd3c7" stroke="#000000" points="908.0828,-190 905.0828,-194 884.0828,-194 881.0828,-190 783.9172,-190 783.9172,-154 908.0828,-154 908.0828,-190"/>
<text text-anchor="middle" x="846" y="-167.8" font-family="Times,serif" font-size="14.00" fill="#000000">GraphsHubModule</text>
</g>
<!-- GraphsHubModule&#45;&gt;AppModule -->
<g id="edge11" class="edge">
<title>GraphsHubModule&#45;&gt;AppModule</title>
<path fill="none" stroke="#000000" d="M846,-190.2667C846,-208.5552 846,-234 846,-234 846,-234 754.0379,-234 754.0379,-234"/>
<polygon fill="#000000" stroke="#000000" points="754.0379,-230.5001 744.0379,-234 754.0378,-237.5001 754.0379,-230.5001"/>
</g>
<!-- GraphsHubComponent  -->
<g id="node17" class="node">
<title>GraphsHubComponent </title>
<polygon fill="#fb8072" stroke="#000000" points="1397.8658,-258 1248.1342,-258 1248.1342,-222 1397.8658,-222 1397.8658,-258"/>
<text text-anchor="middle" x="1323" y="-235.8" font-family="Times,serif" font-size="14.00" fill="#000000">GraphsHubComponent </text>
</g>
<!-- GraphsHubModule&#45;&gt;GraphsHubComponent  -->
<g id="edge16" class="edge">
<title>GraphsHubModule&#45;&gt;GraphsHubComponent </title>
<path fill="none" stroke="#000000" stroke-dasharray="5,2" d="M877.0207,-190.027C877.0207,-206.3976 877.0207,-228 877.0207,-228 877.0207,-228 1238.1017,-228 1238.1017,-228"/>
<polygon fill="#000000" stroke="#000000" points="1238.1017,-231.5001 1248.1017,-228 1238.1017,-224.5001 1238.1017,-231.5001"/>
</g>
<!-- InformationHubModule -->
<g id="node13" class="node">
<title>InformationHubModule</title>
<polygon fill="#8dd3c7" stroke="#000000" points="1076.0253,-190 1073.0253,-194 1052.0253,-194 1049.0253,-190 925.9747,-190 925.9747,-154 1076.0253,-154 1076.0253,-190"/>
<text text-anchor="middle" x="1001" y="-167.8" font-family="Times,serif" font-size="14.00" fill="#000000">InformationHubModule</text>
</g>
<!-- InformationHubModule&#45;&gt;AppModule -->
<g id="edge12" class="edge">
<title>InformationHubModule&#45;&gt;AppModule</title>
<path fill="none" stroke="#000000" d="M1038.6312,-190.2228C1038.6312,-210.3652 1038.6312,-240 1038.6312,-240 1038.6312,-240 753.9539,-240 753.9539,-240"/>
<polygon fill="#000000" stroke="#000000" points="753.954,-236.5001 743.9539,-240 753.9539,-243.5001 753.954,-236.5001"/>
</g>
<!-- InformationHubComponent  -->
<g id="node19" class="node">
<title>InformationHubComponent </title>
<polygon fill="#fb8072" stroke="#000000" points="1783.8073,-258 1608.1927,-258 1608.1927,-222 1783.8073,-222 1783.8073,-258"/>
<text text-anchor="middle" x="1696" y="-235.8" font-family="Times,serif" font-size="14.00" fill="#000000">InformationHubComponent </text>
</g>
<!-- InformationHubModule&#45;&gt;InformationHubComponent  -->
<g id="edge18" class="edge">
<title>InformationHubModule&#45;&gt;InformationHubComponent </title>
<path fill="none" stroke="#000000" stroke-dasharray="5,2" d="M1001,-190.1944C1001,-198.2782 1001,-206 1001,-206 1001,-206 1696,-206 1696,-206 1696,-206 1696,-211.8056 1696,-211.8056"/>
<polygon fill="#000000" stroke="#000000" points="1692.5001,-211.8055 1696,-221.8056 1699.5001,-211.8056 1692.5001,-211.8055"/>
</g>
<!-- MainHubModule -->
<g id="node14" class="node">
<title>MainHubModule</title>
<polygon fill="#8dd3c7" stroke="#000000" points="1207.7064,-190 1204.7064,-194 1183.7064,-194 1180.7064,-190 1094.2936,-190 1094.2936,-154 1207.7064,-154 1207.7064,-190"/>
<text text-anchor="middle" x="1151" y="-167.8" font-family="Times,serif" font-size="14.00" fill="#000000">MainHubModule</text>
</g>
<!-- MainHubModule&#45;&gt;AppModule -->
<g id="edge13" class="edge">
<title>MainHubModule&#45;&gt;AppModule</title>
<path fill="none" stroke="#000000" d="M1151,-190.2921C1151,-212.2057 1151,-246 1151,-246 1151,-246 753.8376,-246 753.8376,-246"/>
<polygon fill="#000000" stroke="#000000" points="753.8377,-242.5001 743.8376,-246 753.8376,-249.5001 753.8377,-242.5001"/>
</g>
<!-- MainHubAlertComponent  -->
<g id="node24" class="node">
<title>MainHubAlertComponent </title>
<polygon fill="#fb8072" stroke="#000000" points="2387.752,-258 2220.248,-258 2220.248,-222 2387.752,-222 2387.752,-258"/>
<text text-anchor="middle" x="2304" y="-235.8" font-family="Times,serif" font-size="14.00" fill="#000000">MainHubAlertComponent </text>
</g>
<!-- MainHubModule&#45;&gt;MainHubAlertComponent  -->
<g id="edge23" class="edge">
<title>MainHubModule&#45;&gt;MainHubAlertComponent </title>
<path fill="none" stroke="#000000" stroke-dasharray="5,2" d="M1207.7842,-183C1439.8545,-183 2304,-183 2304,-183 2304,-183 2304,-211.9648 2304,-211.9648"/>
<polygon fill="#000000" stroke="#000000" points="2300.5001,-211.9648 2304,-221.9648 2307.5001,-211.9649 2300.5001,-211.9648"/>
</g>
<!-- MainHubButtonsComponent  -->
<g id="node25" class="node">
<title>MainHubButtonsComponent </title>
<polygon fill="#fb8072" stroke="#000000" points="2202.0512,-258 2019.9488,-258 2019.9488,-222 2202.0512,-222 2202.0512,-258"/>
<text text-anchor="middle" x="2111" y="-235.8" font-family="Times,serif" font-size="14.00" fill="#000000">MainHubButtonsComponent </text>
</g>
<!-- MainHubModule&#45;&gt;MainHubButtonsComponent  -->
<g id="edge24" class="edge">
<title>MainHubModule&#45;&gt;MainHubButtonsComponent </title>
<path fill="none" stroke="#000000" stroke-dasharray="5,2" d="M1207.8224,-187C1414.0491,-187 2111,-187 2111,-187 2111,-187 2111,-211.7604 2111,-211.7604"/>
<polygon fill="#000000" stroke="#000000" points="2107.5001,-211.7604 2111,-221.7604 2114.5001,-211.7604 2107.5001,-211.7604"/>
</g>
<!-- MainHubComponent  -->
<g id="node26" class="node">
<title>MainHubComponent </title>
<polygon fill="#fb8072" stroke="#000000" points="2735.4897,-258 2596.5103,-258 2596.5103,-222 2735.4897,-222 2735.4897,-258"/>
<text text-anchor="middle" x="2666" y="-235.8" font-family="Times,serif" font-size="14.00" fill="#000000">MainHubComponent </text>
</g>
<!-- MainHubModule&#45;&gt;MainHubComponent  -->
<g id="edge25" class="edge">
<title>MainHubModule&#45;&gt;MainHubComponent </title>
<path fill="none" stroke="#000000" stroke-dasharray="5,2" d="M1207.6248,-176C1482.6591,-176 2666,-176 2666,-176 2666,-176 2666,-211.8314 2666,-211.8314"/>
<polygon fill="#000000" stroke="#000000" points="2662.5001,-211.8313 2666,-221.8314 2669.5001,-211.8314 2662.5001,-211.8313"/>
</g>
<!-- MainHubGraphComponent  -->
<g id="node27" class="node">
<title>MainHubGraphComponent </title>
<polygon fill="#fb8072" stroke="#000000" points="2578.9712,-258 2405.0288,-258 2405.0288,-222 2578.9712,-222 2578.9712,-258"/>
<text text-anchor="middle" x="2492" y="-235.8" font-family="Times,serif" font-size="14.00" fill="#000000">MainHubGraphComponent </text>
</g>
<!-- MainHubModule&#45;&gt;MainHubGraphComponent  -->
<g id="edge26" class="edge">
<title>MainHubModule&#45;&gt;MainHubGraphComponent </title>
<path fill="none" stroke="#000000" stroke-dasharray="5,2" d="M1207.7646,-180C1463.0038,-180 2492,-180 2492,-180 2492,-180 2492,-211.998 2492,-211.998"/>
<polygon fill="#000000" stroke="#000000" points="2488.5001,-211.998 2492,-221.998 2495.5001,-211.9981 2488.5001,-211.998"/>
</g>
<!-- GraphsHubComponent -->
<g id="node16" class="node">
<title>GraphsHubComponent</title>
<polygon fill="#ffffb3" stroke="#000000" points="1567.8655,-258 1422.1345,-258 1422.1345,-222 1567.8655,-222 1567.8655,-258"/>
<text text-anchor="middle" x="1495" y="-235.8" font-family="Times,serif" font-size="14.00" fill="#000000">GraphsHubComponent</text>
</g>
<!-- GraphsHubComponent&#45;&gt;GraphsHubModule -->
<g id="edge15" class="edge">
<title>GraphsHubComponent&#45;&gt;GraphsHubModule</title>
<path fill="none" stroke="#000000" d="M1495,-221.9421C1495,-217.5055 1495,-214 1495,-214 1495,-214 814.9793,-214 814.9793,-214 814.9793,-214 814.9793,-200.0555 814.9793,-200.0555"/>
<polygon fill="#000000" stroke="#000000" points="818.4794,-200.0555 814.9793,-190.0555 811.4794,-200.0556 818.4794,-200.0555"/>
</g>
<!-- InformationHubComponent -->
<g id="node18" class="node">
<title>InformationHubComponent</title>
<polygon fill="#ffffb3" stroke="#000000" points="1980.3075,-258 1807.6925,-258 1807.6925,-222 1980.3075,-222 1980.3075,-258"/>
<text text-anchor="middle" x="1894" y="-235.8" font-family="Times,serif" font-size="14.00" fill="#000000">InformationHubComponent</text>
</g>
<!-- InformationHubComponent&#45;&gt;InformationHubModule -->
<g id="edge17" class="edge">
<title>InformationHubComponent&#45;&gt;InformationHubModule</title>
<path fill="none" stroke="#000000" d="M1894,-221.9445C1894,-210.561 1894,-198 1894,-198 1894,-198 963.3689,-198 963.3689,-198 963.3689,-198 963.3689,-197.2058 963.3689,-197.2058"/>
<polygon fill="#000000" stroke="#000000" points="966.869,-200.0578 963.3689,-190.0579 959.869,-200.0579 966.869,-200.0578"/>
</g>
<!-- MainHubAlertComponent -->
<g id="node20" class="node">
<title>MainHubAlertComponent</title>
<polygon fill="#ffffb3" stroke="#000000" points="3118.752,-258 2955.248,-258 2955.248,-222 3118.752,-222 3118.752,-258"/>
<text text-anchor="middle" x="3037" y="-235.8" font-family="Times,serif" font-size="14.00" fill="#000000">MainHubAlertComponent</text>
</g>
<!-- MainHubAlertComponent&#45;&gt;MainHubModule -->
<g id="edge19" class="edge">
<title>MainHubAlertComponent&#45;&gt;MainHubModule</title>
<path fill="none" stroke="#000000" d="M3037,-221.7157C3037,-200.6789 3037,-169 3037,-169 3037,-169 1217.7009,-169 1217.7009,-169"/>
<polygon fill="#000000" stroke="#000000" points="1217.7009,-165.5001 1207.7009,-169 1217.7008,-172.5001 1217.7009,-165.5001"/>
</g>
<!-- MainHubButtonsComponent -->
<g id="node21" class="node">
<title>MainHubButtonsComponent</title>
<polygon fill="#ffffb3" stroke="#000000" points="2937.0518,-258 2758.9482,-258 2758.9482,-222 2937.0518,-222 2937.0518,-258"/>
<text text-anchor="middle" x="2848" y="-235.8" font-family="Times,serif" font-size="14.00" fill="#000000">MainHubButtonsComponent</text>
</g>
<!-- MainHubButtonsComponent&#45;&gt;MainHubModule -->
<g id="edge20" class="edge">
<title>MainHubButtonsComponent&#45;&gt;MainHubModule</title>
<path fill="none" stroke="#000000" d="M2848,-221.7772C2848,-201.6348 2848,-172 2848,-172 2848,-172 1217.9475,-172 1217.9475,-172"/>
<polygon fill="#000000" stroke="#000000" points="1217.9475,-168.5001 1207.9475,-172 1217.9474,-175.5001 1217.9475,-168.5001"/>
</g>
<!-- MainHubComponent -->
<g id="node22" class="node">
<title>MainHubComponent</title>
<polygon fill="#ffffb3" stroke="#000000" points="3459.4888,-258 3324.5112,-258 3324.5112,-222 3459.4888,-222 3459.4888,-258"/>
<text text-anchor="middle" x="3392" y="-235.8" font-family="Times,serif" font-size="14.00" fill="#000000">MainHubComponent</text>
</g>
<!-- MainHubComponent&#45;&gt;MainHubModule -->
<g id="edge21" class="edge">
<title>MainHubComponent&#45;&gt;MainHubModule</title>
<path fill="none" stroke="#000000" d="M3392,-221.9092C3392,-198.8672 3392,-162 3392,-162 3392,-162 1217.7985,-162 1217.7985,-162"/>
<polygon fill="#000000" stroke="#000000" points="1217.7985,-158.5001 1207.7985,-162 1217.7984,-165.5001 1217.7985,-158.5001"/>
</g>
<!-- MainHubGraphComponent -->
<g id="node23" class="node">
<title>MainHubGraphComponent</title>
<polygon fill="#ffffb3" stroke="#000000" points="3306.9706,-258 3137.0294,-258 3137.0294,-222 3306.9706,-222 3306.9706,-258"/>
<text text-anchor="middle" x="3222" y="-235.8" font-family="Times,serif" font-size="14.00" fill="#000000">MainHubGraphComponent</text>
</g>
<!-- MainHubGraphComponent&#45;&gt;MainHubModule -->
<g id="edge22" class="edge">
<title>MainHubGraphComponent&#45;&gt;MainHubModule</title>
<path fill="none" stroke="#000000" d="M3222,-221.8446C3222,-199.6481 3222,-165 3222,-165 3222,-165 1217.7383,-165 1217.7383,-165"/>
<polygon fill="#000000" stroke="#000000" points="1217.7384,-161.5001 1207.7383,-165 1217.7383,-168.5001 1217.7384,-161.5001"/>
</g>
</g>
</svg>
